<?xml version="1.0" encoding="UTF-8"?>
<svg width="60px" height="57px" viewBox="0 0 60 57" version="1.1" xmlns="http://www.w3.org/2000/svg" xmlns:xlink="http://www.w3.org/1999/xlink">
    <!-- Generator: Sketch 49 (51002) - http://www.bohemiancoding.com/sketch -->
    <title>pantos-logo-full</title>
    <desc>Created with Sketch.</desc>
    <defs>
        <linearGradient x1="0.060800843%" y1="49.9804151%" x2="100.018019%" y2="49.9804151%" id="linearGradient-1">
            <stop stop-color="#73C4C1" offset="0%"/>
            <stop stop-color="#2CB3D1" offset="21.16%"/>
            <stop stop-color="#2459A5" offset="60.59%"/>
            <stop stop-color="#634594" offset="100%"/>
        </linearGradient>
        <linearGradient x1="0.0184145902%" y1="50.0247571%" x2="100.04683%" y2="50.0247571%" id="linearGradient-2">
            <stop stop-color="#73C4C1" offset="0%"/>
            <stop stop-color="#2CB3D1" offset="21.16%"/>
            <stop stop-color="#2459A5" offset="60.59%"/>
            <stop stop-color="#634594" offset="100%"/>
        </linearGradient>
        <linearGradient x1="-0.0266435986%" y1="49.9666667%" x2="99.9879758%" y2="49.9666667%" id="linearGradient-3">
            <stop stop-color="#931D80" offset="0%"/>
            <stop stop-color="#E9556B" offset="47.02%"/>
            <stop stop-color="#EB6534" offset="100%"/>
        </linearGradient>
    </defs>
    <g id="03-Banners" stroke="none" stroke-width="1" fill="none" fill-rule="evenodd">
        <g id="pantos_logo_both" fill-rule="nonzero">
            <g id="pantos-logo-full">
                <circle id="bg" fill="#000000" cx="31.2" cy="29.6727273" r="25.7454545"/>
                <g id="Group">
                    <path d="M59.8930214,31.5650043 C59.8930214,21.8485659 52.6987135,10.897442 44.2474074,5.77081287 C51.6556725,11.2732158 56.7638986,20.7480853 56.7638986,29.847181 C56.7638986,42.3819233 51.8696296,53.6282982 34.5123587,56.2050332 C50.880078,55.2387576 59.8930214,44.9586584 59.8930214,31.5650043 Z" id="Shape" fill="url(#linearGradient-1)"/>
                    <path d="M8.06191033,15.7825022 C13.5980507,10.4948271 25.2587135,2.25464317 32.3460429,2.25464317 C36.5449513,2.25464317 48.5532943,7.8375691 53.6347758,17.1513927 C47.6974659,0.590501782 35.7426121,0.0805229702 30.928577,0.0805229702 C24.0552047,0.0536819801 12.3410526,6.25395069 8.06191033,15.7825022 Z" id="Shape" fill="#63C3DF"/>
                    <path d="M4.13044834,35.2959019 C3.88974659,48.9311249 15.5504094,57.0371039 28.2273684,56.715012 C17.8237037,56.9834219 8.24912281,46.4617538 4.13044834,35.2959019 Z" id="Shape" fill="url(#linearGradient-2)"/>
                    <path d="M3.43508772,29.6056121 C3.43508772,22.7880006 7.04561404,16.104594 12.3410526,11.0316469 C17.3423002,5.18031108 24.0552047,0.0536819801 30.928577,0.0536819801 C22.1295906,0.0536819801 12.5550097,1.9057103 8.46307992,12.5884243 C6.72467836,17.1245517 0.0117738791,19.2986719 0.0117738791,24.39846 C0.0117738791,27.8609477 2.79321637,31.6186863 4.13044834,35.3227429 C4.07695906,35.0006511 4.05021442,34.6785592 4.02346979,34.3564673 C3.64904483,32.7728489 3.43508772,31.1892305 3.43508772,29.6056121 Z" id="Shape" fill="url(#linearGradient-3)"/>
                    <path d="M4.02346979,34.3296263 C4.05021442,34.6517182 4.1037037,34.9738101 4.13044834,35.2959019 C8.24912281,46.4617538 17.7969591,56.9834219 28.2273684,56.715012 C30.4739181,56.66133 32.5867446,56.4734431 34.5123587,56.1781922 C34.0042105,56.2050332 33.4693177,56.2318742 32.9611696,56.2318742 C20.6853801,56.2318742 6.99212476,46.2738669 4.02346979,34.3296263 Z" id="Shape" fill="#342151"/>
                    <path d="M4.67881111,36.5047939 C4.42276286,35.7971663 4.20341437,35.0804657 4.02346979,34.3564673 C4.01309952,34.2454526 4.00317604,34.134438 3.9937571,34.0233653 C3.73883692,32.7204421 2.9020572,29.2772505 4.05680012,24.2592503 C5.10911804,19.6863436 8.79726852,14.3258753 12.4135367,10.8059347 C14.0276488,9.26426492 15.7712027,7.98802954 17.6265604,6.87389929 C22.1693022,3.99251706 27.3175617,2.25464317 32.3192982,2.25464317 C36.5182066,2.25464317 40.5833918,3.56985168 44.2474074,5.77081287 C47.1697134,7.94132171 49.734126,10.7299588 51.7682787,13.8698287 C54.9108528,18.7009755 56.797229,24.3691333 56.797229,29.8985245 C56.797229,42.4332669 51.9297046,53.6796417 34.545689,56.2563767 C34.0375409,56.2832177 33.5293927,56.3100587 32.9944999,56.3100587 C28.6092638,56.3100587 23.756823,56.0118509 19.5633263,53.8337549 C12.7045311,50.2713066 7.07912176,43.4780287 4.67881111,36.5047939 Z M31.1692788,54.8361427 C45.0497466,54.8361427 56.3092398,43.5360859 56.3092398,29.6056121 C56.3092398,15.6751382 45.0497466,4.37508138 31.1692788,4.37508138 C17.2888109,4.37508138 6.02931774,15.6751382 6.02931774,29.6056121 C6.02931774,43.5360859 17.2888109,54.8361427 31.1692788,54.8361427 Z" id="Shape" fill="#342151"/>
                </g>
                <path d="M30.461157,32.1969231 L30.461157,32.2942657 L30.4289256,32.2942657 L30.4289256,37.7454545 L27.0123967,37.7454545 L27.0123967,32.2942657 L20.7272727,32.2942657 L22.1454545,28.9197203 L27.0123967,28.9197203 L27.0123967,18.7636364 L33.2652893,18.7636364 C37.6165289,18.7636364 40.5818182,21.4892308 40.5818182,25.4802797 C40.5818182,29.4064336 37.6165289,32.1969231 33.2652893,32.1969231 L30.461157,32.1969231 Z M30.461157,28.9846154 L33.1363636,28.9846154 C35.6504132,28.9846154 37.1330579,27.5893706 37.1330579,25.4802797 C37.1330579,23.3711888 35.6504132,21.9759441 33.1363636,21.9759441 L30.461157,21.9759441 L30.461157,28.9197203 L30.461157,28.9846154 Z" id="pantos-icon" fill="#FFFFFF"/>
            </g>
        </g>
    </g>
</svg>